# xmcd
#
# Track frame offsets: 
#        150
#        16938
#        27938
#        54888
#        71538
#        86828
#        109175
#        125332
#        148460
#        166213
#        183336
#        197706
#        213478
#        236278
#        251590
#        267715
#        289280
#        312025
#        330732
#
# Disc length: 4779 seconds
#
# Revision: 1
# Processed by: cddbd v1.5.2PL0 Copyright (c) Steve Scherf et al.
# Submitted via: ExactAudioCopy v1.3
#
DISCID=1a12a913
DTITLE=Lightning Hopkins - Akella Presents - Greatest Bluesmen - vol. 
DTITLE=12  CD1
DYEAR=2017
DGENRE=Blues
TTITLE0=Let's Do The Suzie Q
TTITLE1=Ain't It Crazy
TTITLE2=I'm Going To Build Me A Heaven Of My Own
TTITLE3=Coffee Blues
TTITLE4=Don't Embarrass Me, Baby
TTITLE5=Lightnin's Stroke
TTITLE6=Just A Wristwatch On My Arm
TTITLE7=Thinkin' 'Bout An Old Friend
TTITLE8=I'm Taking A Devil Of A Chance
TTITLE9=Sinner's Prayer
TTITLE10=You Is One Black Rat
TTITLE11=Come Back Baby
TTITLE12=Short Haired Woman
TTITLE13=Trouble In Mind
TTITLE14=Little and Low
TTITLE15=Born By The Devil
TTITLE16=Let Them Little Things Be True
TTITLE17=Way Out In Abilene
TTITLE18=They Was Hard Times  (Interview December 1964)
EXTD=
EXTT0=
EXTT1=
EXTT2=
EXTT3=
EXTT4=
EXTT5=
EXTT6=
EXTT7=
EXTT8=
EXTT9=
EXTT10=
EXTT11=
EXTT12=
EXTT13=
EXTT14=
EXTT15=
EXTT16=
EXTT17=
EXTT18=
PLAYORDER=
